# xmcd CD database file generated by libcdaudio 0.99.6
# 
# Track frame offsets:
#       150
#       12072
#       26462
#       39783
#       52407
#       66267
#       79919
#       93047
#       105375
#       120753
#       134907
#       149072
#       162889
#       176353
#       189722
#       201187
#       213465
# 
# Disc length: 3019 seconds
# 
# Revision: 1
# Processed by: cddbd v1.4PL0 Copyright (c) Steve Scherf et al.
# Submitted via: libcdaudio 0.99.6
# 
DISCID=ea0bc911
DTITLE=Ella Fitzgerald - A Tisket A Tasket
DYEAR=1900
DGENRE=
TTITLE0=A Tisket A Tasket
TTITLE1=Five O'Clock Whistle
TTITLE2=Who are you 
TTITLE3=After I say I'm Sorry
TTITLE4=My Man
TTITLE5=Imagination
TTITLE6=I Got it Bad (And That Ain't Good)
TTITLE7=Deedle - Dee - Dum
TTITLE8=I'm Confessin' (That I Love You)
TTITLE9=Die Mir Bist Du Schoen
TTITLE10=Louisville, K-Y
TTITLE11=I'm Thrilled
TTITLE12=All I Need is You
TTITLE13=You Came Along Out Of Nowhere
TTITLE14=Hello Ma! I Done it Again
TTITLE15=Mama Come Home
TTITLE16=(I Put) A Four Leaf Clover in Your Pocket
EXTD=
EXTT0=
EXTT1=
EXTT2=
EXTT3=
EXTT4=
EXTT5=
EXTT6=
EXTT7=
EXTT8=
EXTT9=
EXTT10=
EXTT11=
EXTT12=
EXTT13=
EXTT14=
EXTT15=
EXTT16=
PLAYORDER=
